# xmcd
#
# Track frame offsets:
#	150
#	13588
#	26735
#	40185
#	54759
#	62602
#	74387
#	89550
#
# Disc length: 1333 seconds
#
# Revision: 0
# Processed by: cddbd v1.5.2PL0 Copyright (c) Steve Scherf et al.
# Submitted via: EZCDAudioConverter 8.3.2.1
#
DISCID=62053308
DTITLE=Το Νέο Κύμα 14
DYEAR=2007
DGENRE=Νέο κύμα
TTITLE0=Χωματά Καίτη - Κι αν σ'αγαπώ δεν σ' ορίζω [Γ. Σπανός-Γ. Παπαστεφάνου]
TTITLE1=Ζωγράφος Γιώργος - Μιά φλόγα ήσουν [Βασ. Τενίδης-Γ. Γιαννακόπουλος]
TTITLE2=Μαβίλη Αλέκα - Καράβια μακρινά [Γιάννης Γλέζος]
TTITLE3=Βιολάρης Μιχάλης - Μηνύματα [Γ. Σπανός-Κ. Ασημακόπουλος]
TTITLE4=Αρλέτα - Το λιβάδι [Νίκος Χουλιαράς]
TTITLE5=Πουλόπουλος Γιάννης - Έκλαψα εχθές [Μ. Πλέσσας-Ά. Δασκαλόπουλος]
TTITLE6=Αστεριάδη Πόπη - Νά 'τανε ξημέρωμα [Αμ. Αμαραντίδης-Ά. Δασκαλόπουλος]
TTITLE7=Δήμας Φώτης - Έρημος μέσ' στην ερημιά [Σταύρος Κουγιουμτζής]
EXTD=
EXTT0=
EXTT1=
EXTT2=
EXTT3=
EXTT4=
EXTT5=
EXTT6=
EXTT7=
PLAYORDER=
